<?xml version="1.0" encoding="UTF-8"?>
<svg id="_レイヤー_2" data-name="レイヤー 2" xmlns="http://www.w3.org/2000/svg" viewBox="0 0 1290 800">
  <g id="_レイヤー_1-2" data-name="レイヤー 1">
    <g>
      <g>
        <rect width="750" height="200"/>
        <rect y="300" width="750" height="200"/>
        <rect y="600" width="750" height="200"/>
      </g>
      <g>
        <g>
          <path d="M850,0h67.51l41.5,70.29L1000.52,0h67.51v200h-64.47v-99.14l-44.55,71.14h-1.11l-44.55-71.14v99.14h-63.36V0Z"/>
          <path d="M1090.72,0h64.75v200h-64.75V0Z"/>
        </g>
        <g>
          <path d="M850,357.59h0v-56.17h122.04v56.17h-57.13v142.41h-64.9v-142.41Z"/>
          <path d="M1029.45,300h64.35l81.82,200h-70.45l-10.26-26.67h-67.95l-9.98,26.67h-69.34l81.82-200ZM1078.81,426.24l-17.75-48.23-17.75,48.23h35.5Z"/>
          <path d="M1184.2,301.42h64.9v198.58h-64.9v-198.58Z"/>
        </g>
        <g>
          <path d="M1048.58,800h-62.13l-70.64-87.66v87.66h-65.82v-198.58h59.01l73.76,91.63v-91.63h65.82v198.58Z"/>
          <path d="M1140.5,600h65.82l83.69,200h-72.06l-10.5-26.67h-69.5l-10.21,26.67h-70.92l83.69-200ZM1191,726.24l-18.16-48.23-18.16,48.23h36.31Z"/>
        </g>
      </g>
    </g>
  </g>
</svg>